Encoding:   0%|          | 0/510 [00:00<?, ?fr/s]ffmpeg version 2026-05-06-git-f2e5eff3ff-full_build-www.gyan.dev Copyright (c) 2000-2026 the FFmpeg developers
  built with gcc 15.2.0 (Rev13, Built by MSYS2 project)
  configuration: --enable-gpl --enable-version3 --enable-static --disable-w32threads --disable-autodetect --enable-cairo --enable-fontconfig --enable-iconv --enable-gnutls --enable-lcms2 --enable-libxml2 --enable-gmp --enable-bzlib --enable-lzma --enable-libsnappy --enable-zlib --enable-librist --enable-libsrt --enable-libssh --enable-libzmq --enable-avisynth --enable-libbluray --enable-libcaca --enable-libdvdnav --enable-libdvdread --enable-sdl2 --enable-libaribb24 --enable-libaribcaption --enable-libdav1d --enable-libdavs2 --enable-libopenjpeg --enable-libquirc --enable-libuavs3d --enable-libxevd --enable-libzvbi --enable-liboapv --enable-libqrencode --enable-librav1e --enable-libsvtav1 --enable-libvvenc --enable-libwebp --enable-libx264 --enable-libx265 --enable-libxavs2 --enable-libxeve --enable-libxvid --enable-libaom --enable-libjxl --enable-libsvtjpegxs --enable-libvpx --enable-mediafoundation --enable-libass --enable-frei0r --enable-libfreetype --enable-libfribidi --enable-libharfbuzz --enable-liblensfun --enable-libvidstab --enable-libvmaf --enable-libzimg --enable-amf --enable-cuda-llvm --enable-cuvid --enable-dxva2 --enable-d3d11va --enable-d3d12va --enable-ffnvcodec --enable-libvpl --enable-nvdec --enable-nvenc --enable-vaapi --enable-libshaderc --enable-vulkan --enable-libplacebo --enable-opencl --enable-libcdio --enable-openal --enable-libgme --enable-libmodplug --enable-libopenmpt --enable-libopencore-amrwb --enable-libmp3lame --enable-libshine --enable-libtheora --enable-libtwolame --enable-libvo-amrwbenc --enable-libcodec2 --enable-libilbc --enable-libgsm --enable-liblc3 --enable-libopencore-amrnb --enable-libopus --enable-libspeex --enable-libvorbis --enable-ladspa --enable-libbs2b --enable-libflite --enable-libmysofa --enable-librubberband --enable-libsoxr --enable-chromaprint --enable-whisper
  libavutil      60. 30.100 / 60. 30.100
  libavcodec     62. 30.100 / 62. 30.100
  libavformat    62. 15.100 / 62. 15.100
  libavdevice    62.  4.100 / 62.  4.100
  libavfilter    11. 17.100 / 11. 17.100
  libswscale      9.  7.100 /  9.  7.100
  libswresample   6.  4.100 /  6.  4.100
Input #0, rawvideo, from 'pipe:0':
  Duration: N/A, start: 0.000000, bitrate: 5971968 kb/s
  Stream #0:0: Video: rawvideo (BGR[24] / 0x18524742), bgr24, 3840x2160, 5971968 kb/s, 30 tbr, 30 tbn
Input #1, lavfi, from 'anullsrc=r=48000:cl=stereo':
  Duration: N/A, start: 0.000000, bitrate: 768 kb/s
  Stream #1:0: Audio: pcm_u8, 48000 Hz, stereo, u8, 768 kb/s
Stream mapping:
  Stream #0:0 -> #0:0 (rawvideo (native) -> h264 (libx264))
  Stream #1:0 -> #0:1 (pcm_u8 (native) -> aac (native))
[libx264 @ 000001f4313f5ac0] using cpu capabilities: MMX2 SSE2Fast SSSE3 SSE4.2 AVX FMA3 BMI2 AVX2 AVX512
[libx264 @ 000001f4313f5ac0] profile Constrained Baseline, level 5.1, 4:2:0, 8-bit
[libx264 @ 000001f4313f5ac0] 264 - core 165 r3223 0480cb0 - H.264/MPEG-4 AVC codec - Copyleft 2003-2025 - http://www.videolan.org/x264.html - options: cabac=0 ref=1 deblock=0:0:0 analyse=0:0 me=dia subme=0 psy=1 psy_rd=1.00:0.00 mixed_ref=0 me_range=16 chroma_me=1 trellis=0 8x8dct=0 cqm=0 deadzone=21,11 fast_pskip=1 chroma_qp_offset=0 threads=12 lookahead_threads=2 sliced_threads=0 nr=0 decimate=1 interlaced=0 bluray_compat=0 constrained_intra=0 bframes=0 weightp=0 keyint=250 keyint_min=25 scenecut=0 intra_refresh=0 rc=crf mbtree=0 crf=18.0 qcomp=0.60 qpmin=0 qpmax=69 qpstep=4 ip_ratio=1.40 aq=0
Output #0, mp4, to 'vault\encoded\broken_money_encoded.mp4':
  Metadata:
    encoder         : Lavf62.15.100
  Stream #0:0: Video: h264 (avc1 / 0x31637661), yuv420p(tv, progressive), 3840x2160, q=2-31, 30 fps, 15360 tbn
    Metadata:
      encoder         : Lavc62.30.100 libx264
    Side data:
      CPB properties: bitrate max/min/avg: 0/0/0 buffer size: 0 vbv_delay: N/A
  Stream #0:1: Audio: aac (LC) (mp4a / 0x6134706D), 48000 Hz, stereo, fltp, 32 kb/s
    Metadata:
      encoder         : Lavc62.30.100 aac
frame=    0 fps=0.0 q=0.0 size=       0KiB time=00:00:00.93 bitrate=   0.4kbits/s speed=0.892x elapsed=0:00:01.05    frame=    0 fps=0.0 q=0.0 size=       0KiB time=00:00:00.93 bitrate=   0.4kbits/s speed=0.558x elapsed=0:00:01.68    Encoding:   3%|3         | 16/510 [00:25<13:00,  1.58s/fr]frame=    0 fps=0.0 q=0.0 size=       0KiB time=00:00:00.93 bitrate=   0.4kbits/s speed=0.402x elapsed=0:00:02.33    frame=    4 fps=1.3 q=33.0 size=   11776KiB time=00:00:00.93 bitrate=102772.7kbits/s speed=0.314x elapsed=0:00:02.98    frame=    9 fps=2.5 q=33.0 size=   27136KiB time=00:00:00.93 bitrate=236823.6kbits/s speed=0.256x elapsed=0:00:03.66    frame=   14 fps=3.2 q=33.0 size=   42496KiB time=00:00:00.93 bitrate=370874.5kbits/s speed=0.213x elapsed=0:00:04.39    frame=   19 fps=3.7 q=33.0 size=   57856KiB time=00:00:01.02 bitrate=462848.4kbits/s speed=0.202x elapsed=0:00:05.07    frame=   19 fps=3.4 q=33.0 size=   57856KiB time=00:00:01.02 bitrate=462848.4kbits/s speed=0.183x elapsed=0:00:05.60    frame=   19 fps=3.1 q=33.0 size=   57856KiB time=00:00:01.02 bitrate=462848.4kbits/s speed=0.166x elapsed=0:00:06.15    frame=   19 fps=2.8 q=33.0 size=   57856KiB time=00:00:01.02 bitrate=462848.4kbits/s speed=0.15x elapsed=0:00:06.80    frame=   19 fps=2.6 q=33.0 size=   57856KiB time=00:00:01.02 bitrate=462848.4kbits/s speed=0.139x elapsed=0:00:07.35    Encoding:   6%|6         | 32/510 [00:32<07:14,  1.10fr/s]frame=   19 fps=2.1 q=33.0 size=   57856KiB time=00:00:01.02 bitrate=462848.4kbits/s speed=0.115x elapsed=0:00:08.92    frame=   19 fps=2.0 q=33.0 size=   57856KiB time=00:00:01.02 bitrate=462848.4kbits/s speed=0.106x elapsed=0:00:09.65    frame=   19 fps=1.8 q=33.0 size=   57856KiB time=00:00:01.02 bitrate=462848.4kbits/s speed=0.0965x elapsed=0:00:10.61    frame=   20 fps=1.8 q=33.0 size=   60928KiB time=00:00:01.17 bitrate=425388.7kbits/s speed=0.104x elapsed=0:00:11.22    frame=   20 fps=1.7 q=33.0 size=   60928KiB time=00:00:01.17 bitrate=425388.7kbits/s speed=0.0994x elapsed=0:00:11.80    frame=   20 fps=1.6 q=33.0 size=   60928KiB time=00:00:01.17 bitrate=425388.7kbits/s speed=0.095x elapsed=0:00:12.35    frame=   25 fps=1.9 q=33.0 size=   76288KiB time=00:00:01.34 bitrate=464993.8kbits/s speed=0.103x elapsed=0:00:13.01    frame=   35 fps=2.5 q=33.0 size=  107264KiB time=00:00:01.55 bitrate=564238.4kbits/s speed=0.113x elapsed=0:00:13.77    frame=   35 fps=2.4 q=33.0 size=  107264KiB time=00:00:01.55 bitrate=564238.4kbits/s speed=0.108x elapsed=0:00:14.35    frame=   35 fps=2.3 q=33.0 size=  107264KiB time=00:00:01.55 bitrate=564238.4kbits/s speed=0.104x elapsed=0:00:14.92    frame=   35 fps=2.3 q=33.0 size=  107264KiB time=00:00:01.55 bitrate=564238.4kbits/s speed= 0.1x elapsed=0:00:15.50    Encoding:   9%|9         | 48/510 [00:38<05:16,  1.46fr/s]frame=   35 fps=2.1 q=33.0 size=  107264KiB time=00:00:01.55 bitrate=564238.4kbits/s speed=0.0942x elapsed=0:00:16.53    frame=   35 fps=2.0 q=33.0 size=  107264KiB time=00:00:01.55 bitrate=564238.4kbits/s speed=0.0895x elapsed=0:00:17.40    frame=   35 fps=1.9 q=33.0 size=  107264KiB time=00:00:01.55 bitrate=564238.4kbits/s speed=0.0861x elapsed=0:00:18.08    frame=   37 fps=2.0 q=33.0 size=  113408KiB time=00:00:01.62 bitrate=573009.2kbits/s speed=0.0867x elapsed=0:00:18.70    frame=   45 fps=2.3 q=33.0 size=  137984KiB time=00:00:01.87 bitrate=602112.3kbits/s speed=0.097x elapsed=0:00:19.36    frame=   46 fps=2.3 q=33.0 size=  144128KiB time=00:00:01.98 bitrate=595109.4kbits/s speed=0.0993x elapsed=0:00:19.97    Encoding:  13%|#2        | 64/510 [00:43<03:59,  1.86fr/s]frame=   48 fps=2.3 q=33.0 size=  150272KiB time=00:00:02.09 bitrate=588821.0kbits/s speed=0.101x elapsed=0:00:20.71    frame=   51 fps=2.4 q=33.0 size=  156416KiB time=00:00:02.09 bitrate=612895.4kbits/s speed=0.0977x elapsed=0:00:21.40    frame=   51 fps=2.3 q=33.0 size=  156416KiB time=00:00:02.09 bitrate=612895.4kbits/s speed=0.0953x elapsed=0:00:21.94    frame=   51 fps=2.3 q=33.0 size=  156416KiB time=00:00:02.09 bitrate=612895.4kbits/s speed=0.093x elapsed=0:00:22.47    frame=   51 fps=2.2 q=33.0 size=  156416KiB time=00:00:02.09 bitrate=612895.4kbits/s speed=0.0906x elapsed=0:00:23.06    frame=   51 fps=2.2 q=33.0 size=  156416KiB time=00:00:02.09 bitrate=612895.4kbits/s speed=0.0882x elapsed=0:00:23.69    frame=   51 fps=2.1 q=33.0 size=  156416KiB time=00:00:02.09 bitrate=612895.4kbits/s speed=0.0861x elapsed=0:00:24.29    frame=   51 fps=2.0 q=33.0 size=  156416KiB time=00:00:02.09 bitrate=612895.4kbits/s speed=0.0838x elapsed=0:00:24.94    frame=   51 fps=2.0 q=33.0 size=  156416KiB time=00:00:02.09 bitrate=612895.4kbits/s speed=0.0821x elapsed=0:00:25.47    frame=   51 fps=1.9 q=33.0 size=  156416KiB time=00:00:02.09 bitrate=612895.4kbits/s speed=0.0799x elapsed=0:00:26.17    frame=   56 fps=2.1 q=33.0 size=  171776KiB time=00:00:02.24 bitrate=628209.5kbits/s speed=0.0835x elapsed=0:00:26.81    frame=   60 fps=2.2 q=33.0 size=  184064KiB time=00:00:02.38 bitrate=631076.8kbits/s speed=0.0867x elapsed=0:00:27.55    frame=   65 fps=2.3 q=33.0 size=  199424KiB time=00:00:02.53 bitrate=643519.5kbits/s speed=0.09x elapsed=0:00:28.20    frame=   67 fps=2.3 q=33.0 size=  205824KiB time=00:00:02.62 bitrate=642572.6kbits/s speed=0.0911x elapsed=0:00:28.81    frame=   67 fps=2.3 q=33.0 size=  205824KiB time=00:00:02.62 bitrate=642572.6kbits/s speed=0.0894x elapsed=0:00:29.36    frame=   67 fps=2.2 q=33.0 size=  205824KiB time=00:00:02.62 bitrate=642572.6kbits/s speed=0.0872x elapsed=0:00:30.09    frame=   67 fps=2.2 q=33.0 size=  205824KiB time=00:00:02.62 bitrate=642572.6kbits/s speed=0.0856x elapsed=0:00:30.65    frame=   67 fps=2.1 q=33.0 size=  205824KiB time=00:00:02.62 bitrate=642572.6kbits/s speed=0.0839x elapsed=0:00:31.28    Encoding:  16%|#5        | 80/510 [00:55<04:17,  1.67fr/s]frame=   67 fps=2.1 q=33.0 size=  205824KiB time=00:00:02.62 bitrate=642572.6kbits/s speed=0.0823x elapsed=0:00:31.88    frame=   67 fps=2.1 q=33.0 size=  205824KiB time=00:00:02.62 bitrate=642572.6kbits/s speed=0.0809x elapsed=0:00:32.44    frame=   67 fps=2.0 q=33.0 size=  205824KiB time=00:00:02.62 bitrate=642572.6kbits/s speed=0.0793x elapsed=0:00:33.10    frame=   67 fps=2.0 q=33.0 size=  205824KiB time=00:00:02.62 bitrate=642572.6kbits/s speed=0.0778x elapsed=0:00:33.73    frame=   67 fps=2.0 q=33.0 size=  205824KiB time=00:00:02.62 bitrate=642572.6kbits/s speed=0.0765x elapsed=0:00:34.30    frame=   73 fps=2.1 q=33.0 size=  224256KiB time=00:00:02.81 bitrate=652381.2kbits/s speed=0.0798x elapsed=0:00:35.27    frame=   79 fps=2.2 q=33.0 size=  245760KiB time=00:00:03.05 bitrate=659943.0kbits/s speed=0.0844x elapsed=0:00:36.15    frame=   79 fps=2.1 q=33.0 size=  245760KiB time=00:00:03.11 bitrate=646382.5kbits/s speed=0.0846x elapsed=0:00:36.79    frame=   82 fps=2.2 q=33.0 size=  251904KiB time=00:00:03.15 bitrate=653588.9kbits/s speed=0.0841x elapsed=0:00:37.56    frame=   83 fps=2.2 q=33.0 size=  254976KiB time=00:00:03.15 bitrate=661559.5kbits/s speed=0.0823x elapsed=0:00:38.37    frame=   83 fps=2.1 q=33.0 size=  254976KiB time=00:00:03.15 bitrate=661559.5kbits/s speed=0.0807x elapsed=0:00:39.10    frame=   83 fps=2.1 q=33.0 size=  254976KiB time=00:00:03.15 bitrate=661559.5kbits/s speed=0.0797x elapsed=0:00:39.63    Encoding:  19%|#8        | 96/510 [01:03<03:54,  1.77fr/s]frame=   83 fps=2.1 q=33.0 size=  254976KiB time=00:00:03.15 bitrate=661559.5kbits/s speed=0.0787x elapsed=0:00:40.13    frame=   83 fps=2.0 q=33.0 size=  254976KiB time=00:00:03.15 bitrate=661559.5kbits/s speed=0.0777x elapsed=0:00:40.65    frame=   84 fps=2.0 q=33.0 size=  261120KiB time=00:00:03.22 bitrate=664040.5kbits/s speed=0.0782x elapsed=0:00:41.20    frame=   92 fps=2.2 q=33.0 size=  282624KiB time=00:00:03.45 bitrate=669923.7kbits/s speed=0.0826x elapsed=0:00:41.82    frame=   96 fps=2.3 q=33.0 size=  297984KiB time=00:00:03.64 bitrate=669157.2kbits/s speed=0.0859x elapsed=0:00:42.47    frame=   99 fps=2.3 q=33.0 size=  304128KiB time=00:00:03.69 bitrate=675058.7kbits/s speed=0.0853x elapsed=0:00:43.25    frame=   99 fps=2.3 q=33.0 size=  304128KiB time=00:00:03.69 bitrate=675058.7kbits/s speed=0.084x elapsed=0:00:43.91    frame=   99 fps=2.2 q=33.0 size=  304128KiB time=00:00:03.69 bitrate=675058.7kbits/s speed=0.083x elapsed=0:00:44.45    frame=   99 fps=2.2 q=33.0 size=  304128KiB time=00:00:03.69 bitrate=675058.7kbits/s speed=0.082x elapsed=0:00:45.01    frame=   99 fps=2.2 q=33.0 size=  304128KiB time=00:00:03.69 bitrate=675058.7kbits/s speed=0.0808x elapsed=0:00:45.67    Encoding:  22%|##1       | 112/510 [01:09<03:23,  1.96fr/s]frame=   99 fps=2.1 q=33.0 size=  304128KiB time=00:00:03.69 bitrate=675058.7kbits/s speed=0.0793x elapsed=0:00:46.54    frame=   99 fps=2.1 q=33.0 size=  304128KiB time=00:00:03.69 bitrate=675058.7kbits/s speed=0.0779x elapsed=0:00:47.37    frame=   99 fps=2.1 q=33.0 size=  304128KiB time=00:00:03.69 bitrate=675058.7kbits/s speed=0.0765x elapsed=0:00:48.24    frame=   99 fps=2.0 q=33.0 size=  304128KiB time=00:00:03.69 bitrate=675058.7kbits/s speed=0.0754x elapsed=0:00:48.93    frame=   99 fps=2.0 q=33.0 size=  304128KiB time=00:00:03.69 bitrate=675058.7kbits/s speed=0.0742x elapsed=0:00:49.71    frame=   99 fps=2.0 q=33.0 size=  304128KiB time=00:00:03.69 bitrate=675058.7kbits/s speed=0.0732x elapsed=0:00:50.39    frame=  108 fps=2.1 q=33.0 size=  332032KiB time=00:00:03.98 bitrate=681819.9kbits/s speed=0.0778x elapsed=0:00:51.27    frame=  111 fps=2.1 q=33.0 size=  341248KiB time=00:00:04.05 bitrate=689680.3kbits/s speed=0.0781x elapsed=0:00:51.90    frame=  115 fps=2.2 q=33.0 size=  353536KiB time=00:00:04.22 bitrate=685645.7kbits/s speed=0.0802x elapsed=0:00:52.66    frame=  115 fps=2.2 q=33.0 size=  353536KiB time=00:00:04.22 bitrate=685645.7kbits/s speed=0.0794x elapsed=0:00:53.22    frame=  115 fps=2.1 q=33.0 size=  353536KiB time=00:00:04.22 bitrate=685645.7kbits/s speed=0.0784x elapsed=0:00:53.89    frame=  115 fps=2.1 q=33.0 size=  353536KiB time=00:00:04.22 bitrate=685645.7kbits/s speed=0.0774x elapsed=0:00:54.56    frame=  115 fps=2.1 q=33.0 size=  353536KiB time=00:00:04.22 bitrate=685645.7kbits/s speed=0.0763x elapsed=0:00:55.34    frame=  115 fps=2.1 q=33.0 size=  353536KiB time=00:00:04.22 bitrate=685645.7kbits/s speed=0.0754x elapsed=0:00:56.04    Encoding:  25%|##5       | 128/510 [01:19<03:31,  1.81fr/s]frame=  115 fps=2.0 q=33.0 size=  353536KiB time=00:00:04.22 bitrate=685645.7kbits/s speed=0.0745x elapsed=0:00:56.70    frame=  115 fps=2.0 q=33.0 size=  353536KiB time=00:00:04.22 bitrate=685645.7kbits/s speed=0.0736x elapsed=0:00:57.40    frame=  119 fps=2.0 q=33.0 size=  368896KiB time=00:00:04.37 bitrate=691005.3kbits/s speed=0.075x elapsed=0:00:58.34    frame=  130 fps=2.2 q=33.0 size=  399616KiB time=00:00:04.75 bitrate=688128.1kbits/s speed=0.0803x elapsed=0:00:59.24    frame=  131 fps=2.2 q=33.0 size=  402688KiB time=00:00:04.75 bitrate=693418.0kbits/s speed=0.0794x elapsed=0:00:59.89    frame=  131 fps=2.2 q=33.0 size=  402688KiB time=00:00:04.75 bitrate=693418.0kbits/s speed=0.0785x elapsed=0:01:00.56    frame=  131 fps=2.1 q=33.0 size=  402688KiB time=00:00:04.75 bitrate=693418.0kbits/s speed=0.0773x elapsed=0:01:01.50    frame=  131 fps=2.1 q=33.0 size=  402688KiB time=00:00:04.75 bitrate=693418.0kbits/s speed=0.0767x elapsed=0:01:02.01    Encoding:  28%|##8       | 144/510 [01:25<02:58,  2.05fr/s]frame=  131 fps=2.1 q=33.0 size=  402688KiB time=00:00:04.75 bitrate=693418.0kbits/s speed=0.0761x elapsed=0:01:02.53    frame=  131 fps=2.1 q=33.0 size=  402688KiB time=00:00:04.75 bitrate=693418.0kbits/s speed=0.0754x elapsed=0:01:03.12    frame=  131 fps=2.1 q=33.0 size=  402688KiB time=00:00:04.75 bitrate=693418.0kbits/s speed=0.0745x elapsed=0:01:03.87    frame=  131 fps=2.0 q=33.0 size=  402688KiB time=00:00:04.75 bitrate=693418.0kbits/s speed=0.0739x elapsed=0:01:04.39    frame=  131 fps=2.0 q=33.0 size=  402688KiB time=00:00:04.75 bitrate=693418.0kbits/s speed=0.0733x elapsed=0:01:04.91    frame=  131 fps=2.0 q=33.0 size=  402688KiB time=00:00:04.75 bitrate=693418.0kbits/s speed=0.0723x elapsed=0:01:05.75    frame=  136 fps=2.0 q=33.0 size=  421120KiB time=00:00:05.01 bitrate=688128.1kbits/s speed=0.0753x elapsed=0:01:06.56    frame=  142 fps=2.1 q=33.0 size=  439552KiB time=00:00:05.20 bitrate=691754.1kbits/s speed=0.0772x elapsed=0:01:07.45    frame=  142 fps=2.1 q=33.0 size=  439552KiB time=00:00:05.20 bitrate=691754.1kbits/s speed=0.0763x elapsed=0:01:08.20    frame=  145 fps=2.1 q=33.0 size=  445696KiB time=00:00:05.29 bitrate=690110.0kbits/s speed=0.0763x elapsed=0:01:09.33    Encoding:  31%|###1      | 160/510 [01:33<02:49,  2.06fr/s]frame=  147 fps=2.1 q=33.0 size=  451840KiB time=00:00:05.29 bitrate=699623.3kbits/s speed=0.0755x elapsed=0:01:10.11    frame=  147 fps=2.1 q=33.0 size=  451840KiB time=00:00:05.29 bitrate=699623.3kbits/s speed=0.0747x elapsed=0:01:10.80    frame=  147 fps=2.1 q=33.0 size=  451840KiB time=00:00:05.29 bitrate=699623.3kbits/s speed=0.074x elapsed=0:01:11.49    frame=  147 fps=2.0 q=33.0 size=  451840KiB time=00:00:05.29 bitrate=699623.3kbits/s speed=0.0733x elapsed=0:01:12.13    frame=  147 fps=2.0 q=33.0 size=  451840KiB time=00:00:05.29 bitrate=699623.3kbits/s speed=0.0728x elapsed=0:01:12.68    frame=  147 fps=2.0 q=33.0 size=  451840KiB time=00:00:05.29 bitrate=699623.3kbits/s speed=0.0712x elapsed=0:01:14.26    frame=  147 fps=2.0 q=33.0 size=  451840KiB time=00:00:05.29 bitrate=699623.3kbits/s speed=0.0704x elapsed=0:01:15.09    frame=  147 fps=1.9 q=33.0 size=  451840KiB time=00:00:05.29 bitrate=699623.3kbits/s speed=0.0699x elapsed=0:01:15.63    frame=  147 fps=1.9 q=33.0 size=  451840KiB time=00:00:05.29 bitrate=699623.3kbits/s speed=0.0695x elapsed=0:01:16.16    frame=  147 fps=1.9 q=33.0 size=  451840KiB time=00:00:05.29 bitrate=699623.3kbits/s speed=0.0686x elapsed=0:01:17.08    frame=  147 fps=1.9 q=33.0 size=  451840KiB time=00:00:05.29 bitrate=699623.3kbits/s speed=0.0679x elapsed=0:01:17.90    frame=  147 fps=1.9 q=33.0 size=  451840KiB time=00:00:05.29 bitrate=699623.3kbits/s speed=0.0672x elapsed=0:01:18.68    frame=  147 fps=1.9 q=33.0 size=  451840KiB time=00:00:05.29 bitrate=699623.3kbits/s speed=0.0668x elapsed=0:01:19.25    frame=  147 fps=1.8 q=33.0 size=  451840KiB time=00:00:05.29 bitrate=699623.3kbits/s speed=0.0663x elapsed=0:01:19.81    frame=  147 fps=1.8 q=33.0 size=  451840KiB time=00:00:05.29 bitrate=699623.3kbits/s speed=0.0657x elapsed=0:01:20.50    frame=  147 fps=1.8 q=33.0 size=  451840KiB time=00:00:05.29 bitrate=699623.3kbits/s speed=0.0651x elapsed=0:01:21.25    frame=  150 fps=1.8 q=33.0 size=  461056KiB time=00:00:05.44 bitrate=694296.2kbits/s speed=0.0664x elapsed=0:01:21.87    frame=  159 fps=1.9 q=33.0 size=  488960KiB time=00:00:05.71 bitrate=700599.5kbits/s speed=0.0692x elapsed=0:01:22.61    Encoding:  35%|###4      | 176/510 [01:46<03:16,  1.70fr/s]frame=  162 fps=1.9 q=33.0 size=  501248KiB time=00:00:05.82 bitrate=705052.2kbits/s speed=0.0698x elapsed=0:01:23.42    frame=  162 fps=1.9 q=33.0 size=  501248KiB time=00:00:05.88 bitrate=697388.6kbits/s speed=0.0698x elapsed=0:01:24.31    frame=  162 fps=1.9 q=33.0 size=  501248KiB time=00:00:05.88 bitrate=697388.6kbits/s speed=0.0693x elapsed=0:01:24.92    frame=  167 fps=2.0 q=33.0 size=  516608KiB time=00:00:06.03 bitrate=700980.6kbits/s speed=0.0706x elapsed=0:01:25.54    frame=  171 fps=2.0 q=33.0 size=  528896KiB time=00:00:06.18 bitrate=700331.3kbits/s speed=0.0716x elapsed=0:01:26.43    frame=  174 fps=2.0 q=33.0 size=  538112KiB time=00:00:06.27 bitrate=702840.2kbits/s speed=0.0721x elapsed=0:01:26.95    frame=  175 fps=2.0 q=33.0 size=  541184KiB time=00:00:06.31 bitrate=702076.6kbits/s speed=0.0722x elapsed=0:01:27.47    frame=  179 fps=2.0 q=33.0 size=  550400KiB time=00:00:06.35 bitrate=709240.4kbits/s speed=0.0721x elapsed=0:01:28.20    frame=  179 fps=2.0 q=33.0 size=  550400KiB time=00:00:06.35 bitrate=709240.4kbits/s speed=0.0715x elapsed=0:01:28.88    Encoding:  38%|###7      | 192/510 [01:52<02:48,  1.89fr/s]frame=  179 fps=2.0 q=33.0 size=  550400KiB time=00:00:06.35 bitrate=709240.4kbits/s speed=0.0709x elapsed=0:01:29.63    frame=  182 fps=2.0 q=33.0 size=  562688KiB time=00:00:06.44 bitrate=715470.9kbits/s speed=0.0713x elapsed=0:01:30.39    frame=  188 fps=2.1 q=33.0 size=  578048KiB time=00:00:06.65 bitrate=711443.8kbits/s speed=0.0731x elapsed=0:01:31.10    frame=  191 fps=2.1 q=33.0 size=  590336KiB time=00:00:06.84 bitrate=706196.4kbits/s speed=0.0746x elapsed=0:01:31.81    frame=  195 fps=2.1 q=33.0 size=  599552KiB time=00:00:06.89 bitrate=712780.1kbits/s speed=0.0744x elapsed=0:01:32.56    frame=  195 fps=2.1 q=33.0 size=  599552KiB time=00:00:06.89 bitrate=712780.1kbits/s speed=0.0738x elapsed=0:01:33.32    frame=  195 fps=2.1 q=33.0 size=  599552KiB time=00:00:06.89 bitrate=712780.1kbits/s speed=0.0733x elapsed=0:01:33.95    Encoding:  41%|####      | 208/510 [01:57<02:21,  2.14fr/s]frame=  195 fps=2.1 q=33.0 size=  599552KiB time=00:00:06.89 bitrate=712780.1kbits/s speed=0.0727x elapsed=0:01:34.73    frame=  195 fps=2.0 q=33.0 size=  599552KiB time=00:00:06.89 bitrate=712780.1kbits/s speed=0.072x elapsed=0:01:35.66    frame=  195 fps=2.0 q=33.0 size=  599552KiB time=00:00:06.89 bitrate=712780.1kbits/s speed=0.0715x elapsed=0:01:36.30    frame=  195 fps=2.0 q=33.0 size=  599552KiB time=00:00:06.89 bitrate=712780.1kbits/s speed=0.0711x elapsed=0:01:36.94    frame=  195 fps=2.0 q=33.0 size=  599552KiB time=00:00:06.89 bitrate=712780.1kbits/s speed=0.0705x elapsed=0:01:37.70    frame=  195 fps=2.0 q=33.0 size=  599552KiB time=00:00:06.89 bitrate=712780.1kbits/s speed=0.07x elapsed=0:01:38.50    frame=  195 fps=2.0 q=33.0 size=  599552KiB time=00:00:06.89 bitrate=712780.1kbits/s speed=0.0693x elapsed=0:01:39.48    frame=  195 fps=1.9 q=33.0 size=  599552KiB time=00:00:06.89 bitrate=712780.1kbits/s speed=0.0689x elapsed=0:01:40.00    frame=  195 fps=1.9 q=33.0 size=  599552KiB time=00:00:06.89 bitrate=712780.1kbits/s speed=0.0685x elapsed=0:01:40.56    frame=  195 fps=1.9 q=33.0 size=  599552KiB time=00:00:06.89 bitrate=712780.1kbits/s speed=0.068x elapsed=0:01:41.26    frame=  195 fps=1.9 q=33.0 size=  599552KiB time=00:00:06.89 bitrate=712780.1kbits/s speed=0.0675x elapsed=0:01:42.08    frame=  195 fps=1.9 q=33.0 size=  599552KiB time=00:00:06.89 bitrate=712780.1kbits/s speed=0.0671x elapsed=0:01:42.71    frame=  195 fps=1.9 q=33.0 size=  599552KiB time=00:00:06.89 bitrate=712780.1kbits/s speed=0.0666x elapsed=0:01:43.49    frame=  195 fps=1.9 q=33.0 size=  599552KiB time=00:00:06.89 bitrate=712780.1kbits/s speed=0.0662x elapsed=0:01:44.07    frame=  196 fps=1.9 q=33.0 size=  602624KiB time=00:00:06.95 bitrate=709839.3kbits/s speed=0.0664x elapsed=0:01:44.79    frame=  199 fps=1.9 q=33.0 size=  614912KiB time=00:00:07.10 bitrate=709087.8kbits/s speed=0.0675x elapsed=0:01:45.32    frame=  204 fps=1.9 q=33.0 size=  630272KiB time=00:00:07.27 bitrate=709749.1kbits/s speed=0.0687x elapsed=0:01:45.83    frame=  210 fps=2.0 q=33.0 size=  645632KiB time=00:00:07.42 bitrate=712421.6kbits/s speed=0.0698x elapsed=0:01:46.40    Encoding:  44%|####3     | 224/510 [02:09<02:38,  1.80fr/s]frame=  211 fps=2.0 q=33.0 size=  648704KiB time=00:00:07.42 bitrate=715811.4kbits/s speed=0.0693x elapsed=0:01:47.06    frame=  211 fps=2.0 q=33.0 size=  648704KiB time=00:00:07.42 bitrate=715811.4kbits/s speed=0.0689x elapsed=0:01:47.68    frame=  215 fps=2.0 q=33.0 size=  660992KiB time=00:00:07.55 bitrate=717008.3kbits/s speed=0.0697x elapsed=0:01:48.27    frame=  220 fps=2.0 q=33.0 size=  676352KiB time=00:00:07.72 bitrate=717456.3kbits/s speed=0.0709x elapsed=0:01:48.92    frame=  225 fps=2.0 q=33.0 size=  695040KiB time=00:00:07.95 bitrate=715537.2kbits/s speed=0.0725x elapsed=0:01:49.81    frame=  227 fps=2.1 q=33.0 size=  698112KiB time=00:00:07.95 bitrate=718699.8kbits/s speed=0.0721x elapsed=0:01:50.40    frame=  227 fps=2.0 q=33.0 size=  698112KiB time=00:00:07.95 bitrate=718699.8kbits/s speed=0.0716x elapsed=0:01:51.12    frame=  227 fps=2.0 q=33.0 size=  698112KiB time=00:00:07.95 bitrate=718699.8kbits/s speed=0.0712x elapsed=0:01:51.80    frame=  227 fps=2.0 q=33.0 size=  698112KiB time=00:00:07.95 bitrate=718699.8kbits/s speed=0.0707x elapsed=0:01:52.53    frame=  227 fps=2.0 q=33.0 size=  698112KiB time=00:00:07.95 bitrate=718699.8kbits/s speed=0.0703x elapsed=0:01:53.16    frame=  227 fps=2.0 q=33.0 size=  698112KiB time=00:00:07.95 bitrate=718699.8kbits/s speed=0.07x elapsed=0:01:53.70    Encoding:  47%|####7     | 240/510 [02:17<02:21,  1.90fr/s]frame=  227 fps=2.0 q=33.0 size=  698112KiB time=00:00:07.95 bitrate=718699.8kbits/s speed=0.0696x elapsed=0:01:54.29    frame=  227 fps=2.0 q=33.0 size=  698112KiB time=00:00:07.95 bitrate=718699.8kbits/s speed=0.0692x elapsed=0:01:54.91    frame=  227 fps=2.0 q=33.0 size=  698112KiB time=00:00:07.95 bitrate=718699.8kbits/s speed=0.0688x elapsed=0:01:55.64    frame=  230 fps=2.0 q=33.0 size=  707328KiB time=00:00:08.04 bitrate=720461.4kbits/s speed=0.0692x elapsed=0:01:56.29    frame=  240 fps=2.1 q=30.0 size=  738048KiB time=00:00:08.38 bitrate=721146.2kbits/s speed=0.0716x elapsed=0:01:57.06    frame=  241 fps=2.0 q=33.0 size=  741120KiB time=00:00:08.49 bitrate=715050.5kbits/s speed=0.0721x elapsed=0:01:57.77    frame=  243 fps=2.1 q=33.0 size=  747264KiB time=00:00:08.49 bitrate=720978.3kbits/s speed=0.0718x elapsed=0:01:58.31    frame=  243 fps=2.0 q=33.0 size=  747264KiB time=00:00:08.49 bitrate=720978.3kbits/s speed=0.0714x elapsed=0:01:58.83    frame=  243 fps=2.0 q=33.0 size=  747264KiB time=00:00:08.49 bitrate=720978.3kbits/s speed=0.0711x elapsed=0:01:59.46    Encoding:  50%|#####     | 256/510 [02:23<02:03,  2.06fr/s]frame=  243 fps=2.0 q=33.0 size=  747264KiB time=00:00:08.49 bitrate=720978.3kbits/s speed=0.0707x elapsed=0:02:00.17    frame=  243 fps=2.0 q=33.0 size=  747264KiB time=00:00:08.49 bitrate=720978.3kbits/s speed=0.0702x elapsed=0:02:00.91    frame=  250 fps=2.1 q=33.0 size=  768768KiB time=00:00:08.70 bitrate=723546.4kbits/s speed=0.0716x elapsed=0:02:01.64    frame=  257 fps=2.1 q=33.0 size=  790784KiB time=00:00:08.98 bitrate=721285.2kbits/s speed=0.0734x elapsed=0:02:02.40    frame=  257 fps=2.1 q=33.0 size=  793856KiB time=00:00:09.02 bitrate=720663.6kbits/s speed=0.0733x elapsed=0:02:03.06    frame=  257 fps=2.1 q=33.0 size=  793856KiB time=00:00:09.02 bitrate=720663.6kbits/s speed=0.0729x elapsed=0:02:03.74    frame=  258 fps=2.1 q=33.0 size=  793856KiB time=00:00:09.02 bitrate=720663.6kbits/s speed=0.0725x elapsed=0:02:04.55    frame=  258 fps=2.1 q=33.0 size=  793856KiB time=00:00:09.02 bitrate=720663.6kbits/s speed=0.0722x elapsed=0:02:05.06    frame=  258 fps=2.1 q=33.0 size=  793856KiB time=00:00:09.02 bitrate=720663.6kbits/s speed=0.0719x elapsed=0:02:05.57    frame=  259 fps=2.1 q=33.0 size=  796928KiB time=00:00:09.02 bitrate=723452.4kbits/s speed=0.0715x elapsed=0:02:06.14    frame=  259 fps=2.0 q=33.0 size=  796928KiB time=00:00:09.02 bitrate=723452.4kbits/s speed=0.0711x elapsed=0:02:06.92    Encoding:  53%|#####3    | 272/510 [02:30<01:51,  2.13fr/s]frame=  259 fps=2.0 q=33.0 size=  796928KiB time=00:00:09.02 bitrate=723452.4kbits/s speed=0.0708x elapsed=0:02:07.50    frame=  259 fps=2.0 q=33.0 size=  796928KiB time=00:00:09.02 bitrate=723452.4kbits/s speed=0.0705x elapsed=0:02:08.07    frame=  259 fps=2.0 q=33.0 size=  796928KiB time=00:00:09.02 bitrate=723452.4kbits/s speed=0.0701x elapsed=0:02:08.72    frame=  259 fps=2.0 q=33.0 size=  796928KiB time=00:00:09.02 bitrate=723452.4kbits/s speed=0.0698x elapsed=0:02:09.33    frame=  259 fps=2.0 q=33.0 size=  796928KiB time=00:00:09.02 bitrate=723452.4kbits/s speed=0.0694x elapsed=0:02:10.00    frame=  259 fps=2.0 q=33.0 size=  796928KiB time=00:00:09.02 bitrate=723452.4kbits/s speed=0.0691x elapsed=0:02:10.63    frame=  259 fps=2.0 q=33.0 size=  796928KiB time=00:00:09.02 bitrate=723452.4kbits/s speed=0.0687x elapsed=0:02:11.30    frame=  259 fps=2.0 q=33.0 size=  796928KiB time=00:00:09.02 bitrate=723452.4kbits/s speed=0.0684x elapsed=0:02:12.02    frame=  259 fps=2.0 q=33.0 size=  796928KiB time=00:00:09.02 bitrate=723452.4kbits/s speed=0.0681x elapsed=0:02:12.53    frame=  259 fps=1.9 q=33.0 size=  796928KiB time=00:00:09.02 bitrate=723452.4kbits/s speed=0.0678x elapsed=0:02:13.04    frame=  259 fps=1.9 q=33.0 size=  796928KiB time=00:00:09.02 bitrate=723452.4kbits/s speed=0.0675x elapsed=0:02:13.60    frame=  259 fps=1.9 q=33.0 size=  796928KiB time=00:00:09.02 bitrate=723452.4kbits/s speed=0.0672x elapsed=0:02:14.18    frame=  259 fps=1.9 q=33.0 size=  796928KiB time=00:00:09.02 bitrate=723452.4kbits/s speed=0.0669x elapsed=0:02:14.82    frame=  259 fps=1.9 q=33.0 size=  796928KiB time=00:00:09.02 bitrate=723452.4kbits/s speed=0.0666x elapsed=0:02:15.42    frame=  259 fps=1.9 q=33.0 size=  796928KiB time=00:00:09.02 bitrate=723452.4kbits/s speed=0.0663x elapsed=0:02:16.02    frame=  259 fps=1.9 q=33.0 size=  796928KiB time=00:00:09.02 bitrate=723452.4kbits/s speed=0.0661x elapsed=0:02:16.59    